<svg version="1.1" id="Splash" xmlns="http://www.w3.org/2000/svg" xmlns:xlink="http://www.w3.org/1999/xlink" x="0px" y="0px" width="1354.5px" height="179.3px" viewBox="0 0 1354.5 179.3" enable-background="new 0 0 1354.5 179.3" xml:space="preserve">
<path style="stroke-dasharray: 534, 536; stroke-dashoffset: 0;" id="A-outer-stroke-white" fill="none" stroke="#FFFFFF" stroke-width="5" stroke-linecap="round" stroke-miterlimit="10" d="M433.4,160.8
	c-2.8,6.5-7.6,11.3-14.2,14.1l-0.2,0.1c-3.2,1.2-6.4,1.8-9.6,1.8c-3.6,0-7.2-0.8-10.7-2.4c-6.2-2.8-10.7-7.4-13.4-13.7H339
	c-2.7,6.3-7.2,10.9-13.4,13.7c-3.5,1.6-7.1,2.4-10.7,2.4c-3.1,0-6.3-0.6-9.4-1.8l-0.2-0.1c-6.7-2.8-11.5-7.5-14.4-14
	c-3-6.6-3.2-13.4-0.6-20.1l47.3-121.4l0-0.1c2.1-4.7,5.3-8.6,9.6-11.7c4.6-3.3,9.6-5,14.8-5c5.3,0,10.2,1.6,14.7,4.7
	c4.5,3.1,7.7,7.2,9.8,12.2l47.1,121.4C436.3,147.5,436.2,154.2,433.4,160.8z"></path>
<path style="stroke-dasharray: 40, 42; stroke-dashoffset: 0;" id="A-inner-stroke-white" fill="none" stroke="#FFFFFF" stroke-width="5" stroke-linecap="round" stroke-miterlimit="10" d="M362.1,101.2
	356.9,114.6 367.3,114.6Z"></path>
<path style="stroke-dasharray: 504, 506; stroke-dashoffset: 0;" id="A-outer-stroke-red" fill="none" stroke="#FF0000" stroke-width="5" stroke-linecap="round" stroke-miterlimit="10" d="M342.3,21.3
	c1.7-3.9,4.4-7.1,8-9.7c3.8-2.7,7.8-4.1,11.9-4.1c4.2,0,8.2,1.3,11.9,3.8c3.6,2.5,6.3,5.9,8,10l47,121.3c2.1,5.4,2,10.9-0.3,16.2
	c-2.3,5.3-6.2,9.2-11.6,11.4c-2.7,1-5.2,1.5-7.8,1.5c-2.9,0-5.8-0.6-8.7-1.9c-5.4-2.4-9.1-6.5-11.2-12.1l-0.8-2h-53.1l-0.7,2
	c-2.1,5.7-5.9,9.7-11.2,12.1c-2.8,1.3-5.8,1.9-8.7,1.9c-2.5,0-5.1-0.5-7.6-1.5c-5.5-2.3-9.4-6.2-11.8-11.4
	c-2.4-5.3-2.6-10.8-0.5-16.3L342.3,21.3z"></path>
<path style="stroke-dasharray: 95, 97; stroke-dashoffset: 0;" id="A-inner-stroke-red" fill="none" stroke="#FF0000" stroke-width="5" stroke-linecap="round" stroke-miterlimit="10" d="M374.6,119.6
	362.2,87.4 349.5,119.6Z"></path>
<path style="stroke-dasharray: 474, 476; stroke-dashoffset: 0;" id="A-fill-outer-stroke-black" fill="none" stroke="#454545" stroke-width="5" stroke-linecap="round" stroke-miterlimit="10" d="M347,23.1
	c1.3-2.9,3.4-5.4,6.3-7.5c2.9-2.1,5.9-3.1,8.9-3.1c3.2,0,6.2,1,9,2.9c2.8,1.9,4.9,4.5,6.1,7.7l47,121.3c1.6,4.2,1.5,8.3-0.2,12.4
	c-1.8,4.1-4.7,7-8.9,8.8c-4.2,1.6-8.3,1.5-12.4-0.4c-4.1-1.8-7-4.9-8.6-9.3l-2.2-5.3h-60l-1.9,5.3c-1.6,4.3-4.5,7.4-8.6,9.3
	c-4.1,1.8-8.2,2-12.4,0.4c-4.2-1.8-7.2-4.7-9-8.8c-1.9-4.1-2-8.2-0.4-12.4L347,23.1z"></path>
<path style="stroke-dasharray: 150, 152; stroke-dashoffset: 0;" id="A-fill-inner-stroke-black" fill="none" stroke="#454545" stroke-width="5" stroke-linecap="round" stroke-miterlimit="10" d="
	M342.2,124.6 382,124.6 362.2,73.5Z"></path>
</svg>